<?xml version="1.0" encoding="UTF-8"?><svg id="Layer_1" xmlns="http://www.w3.org/2000/svg" viewBox="0 0 544.97 296.5"><defs><style>.cls-1{fill:#cd8543;stroke:#cd8543;}.cls-2{fill:none;stroke:#eb2329;stroke-width:6px;}.cls-3{fill:#eb2329;}</style></defs><path class="cls-1" d="M140.19,73.91v72.06h58.63V80.21c0-8.43,6.85-15.28,15.28-15.28s15.28,6.85,15.28,15.28v65.76h33.45v-16.01h-17.44v-49.75c0-17.25-14.03-31.29-31.29-31.29s-31.29,14.03-31.29,31.29v49.75h-26.62v-56.05c0-31.93,25.98-57.91,57.91-57.91s57.91,25.98,57.91,57.91v47.62c0,40.76,33.16,73.91,73.91,73.91s73.91-33.16,73.91-73.91V49.48h-58.63V115.24c0,8.42-6.85,15.28-15.28,15.28s-15.28-6.86-15.28-15.28V49.48h-36.28v16.01h20.28v49.75c0,17.25,14.03,31.29,31.29,31.29s31.29-14.03,31.29-31.29v-49.75h26.62v56.05c0,31.93-25.98,57.91-57.91,57.91s-57.91-25.98-57.91-57.91v-47.62C288.01,33.16,254.86,0,214.1,0s-73.91,33.16-73.91,73.91Z"/><g><path class="cls-3" d="M208.41,207.07c13.62-.16,24.23,5.36,31.83,16.56h10.33c-3.96-7.68-9.5-13.8-16.63-18.36-7.44-4.64-15.72-7-24.82-7.08-13.07-.08-24.11,4.36-33.14,13.32-9.26,9.04-13.9,20.36-13.9,33.96s4.61,24.56,13.84,34.08c9.22,9.52,20.29,14.2,33.2,14.04,9.1-.16,17.24-2.46,24.41-6.9,7.17-4.44,12.85-10.66,17.04-18.66h-10.21c-3.17,4.77-7.56,8.7-13.18,11.8-5.86,3.26-11.88,4.88-18.05,4.88-10.61,0-19.7-3.94-27.26-11.82-7.56-7.88-11.22-17.22-10.99-28.02,.24-10.4,4.02-19.3,11.34-26.7,7.32-7.4,16.05-11.1,26.19-11.1Zm-74.43,56.48c0,5.77-2.09,10.72-6.27,14.85-4.18,4.13-9.06,6.19-14.63,6.19s-10.45-2.06-14.63-6.19c-4.18-4.13-6.27-9.08-6.27-14.85v-40.16h-9.03v39c0,8.88,2.83,16.28,8.49,22.2,5.66,5.92,12.81,8.88,21.44,8.88s15.78-2.96,21.44-8.88c5.66-5.92,8.49-13.32,8.49-22.2v-39h-9.03v40.16Zm-100.92-41.72c-8.63,0-15.8,2.94-21.5,8.82s-8.55,13.26-8.55,22.14v39H12.03v-39.96c0-5.76,2.09-10.72,6.27-14.88,4.18-4.16,9.1-6.24,14.75-6.24s10.45,2.08,14.63,6.24c4.18,4.16,6.27,9.12,6.27,14.88v39.96h9.03v-39c0-8.88-2.85-16.26-8.55-22.14s-12.83-8.82-21.38-8.82Zm508.85,33.96c0-8.48-3.21-16.16-9.62-23.04-6.65-6.96-14.49-10.72-23.52-11.28-10.06-.56-18.79,2.86-26.19,10.26-7.41,7.4-10.99,16.22-10.75,26.46,.16,9.68,3.8,18.02,10.93,25.02,7.13,7,15.32,10.42,24.59,10.26,7.36-.08,14.05-2.28,20.07-6.6,6.02-4.32,10.29-10.16,12.83-17.52h-9.62c-4.59,9.84-12.23,14.84-22.92,15-6.89,.08-12.87-2.12-17.93-6.6-5.07-4.48-7.96-10.16-8.67-17.04h60.81v-4.92Zm-60.81-3.48c1.27-6.48,4.34-11.72,9.21-15.72,4.87-4,10.55-5.96,17.04-5.88,6.49,.08,12.07,2.1,16.75,6.06,4.67,3.96,7.64,9.14,8.91,15.54h-51.91Zm-52.6,27.4l-23.01-56.32h-9.5l27.79,68.4h9.38l28.27-68.4h-10.04l-22.89,56.32Zm-129.62-58c-9.82-.4-18.25,2.98-25.3,10.14-7.05,7.16-10.57,15.74-10.57,25.74s3.27,17.88,9.82,24.84c6.55,6.96,14.47,10.6,23.78,10.92,10.65,.32,19.64-3.76,26.98-12.24v10.68h9.03v-34.32c.32-9.52-2.85-17.78-9.5-24.78-6.65-7-14.73-10.66-24.23-10.98Zm17.03,54.88c-5.28,5.57-11.65,8.2-19.11,7.88-6.91-.32-12.8-3.19-17.68-8.6s-7.24-11.73-7.08-18.94c.08-7.3,2.66-13.51,7.74-18.64,5.08-5.13,11.23-7.7,18.46-7.7s12.81,2.57,17.74,7.7c4.92,5.13,7.46,11.31,7.62,18.52,.16,7.62-2.4,14.21-7.68,19.78Zm54.01-52c-3.72,2-6.53,4.84-8.43,8.52v-9.72h-8.43v68.4h9.5v-40.92c0-4.4,.75-7.92,2.26-10.56,.95-1.6,2.73-3.48,5.34-5.64,2.61-2.16,6.02-3.32,10.21-3.48v-9.12c-3.56-.16-7.05,.68-10.45,2.52Z"/><path class="cls-2" d="M208.41,207.07c13.62-.16,24.23,5.36,31.83,16.56h10.33c-3.96-7.68-9.5-13.8-16.63-18.36-7.44-4.64-15.72-7-24.82-7.08-13.07-.08-24.11,4.36-33.14,13.32-9.26,9.04-13.9,20.36-13.9,33.96s4.61,24.56,13.84,34.08c9.22,9.52,20.29,14.2,33.2,14.04,9.1-.16,17.24-2.46,24.41-6.9,7.17-4.44,12.85-10.66,17.04-18.66h-10.21c-3.17,4.77-7.56,8.7-13.18,11.8-5.86,3.26-11.88,4.88-18.05,4.88-10.61,0-19.7-3.94-27.26-11.82-7.56-7.88-11.22-17.22-10.99-28.02,.24-10.4,4.02-19.3,11.34-26.7,7.32-7.4,16.05-11.1,26.19-11.1Zm-74.43,56.48c0,5.77-2.09,10.72-6.27,14.85-4.18,4.13-9.06,6.19-14.63,6.19s-10.45-2.06-14.63-6.19c-4.18-4.13-6.27-9.08-6.27-14.85v-40.16h-9.03v39c0,8.88,2.83,16.28,8.49,22.2,5.66,5.92,12.81,8.88,21.44,8.88s15.78-2.96,21.44-8.88c5.66-5.92,8.49-13.32,8.49-22.2v-39h-9.03v40.16Zm-100.92-41.72c-8.63,0-15.8,2.94-21.5,8.82s-8.55,13.26-8.55,22.14v39H12.03v-39.96c0-5.76,2.09-10.72,6.27-14.88,4.18-4.16,9.1-6.24,14.75-6.24s10.45,2.08,14.63,6.24c4.18,4.16,6.27,9.12,6.27,14.88v39.96h9.03v-39c0-8.88-2.85-16.26-8.55-22.14s-12.83-8.82-21.38-8.82Zm508.85,33.96c0-8.48-3.21-16.16-9.62-23.04-6.65-6.96-14.49-10.72-23.52-11.28-10.06-.56-18.79,2.86-26.19,10.26-7.41,7.4-10.99,16.22-10.75,26.46,.16,9.68,3.8,18.02,10.93,25.02,7.13,7,15.32,10.42,24.59,10.26,7.36-.08,14.05-2.28,20.07-6.6,6.02-4.32,10.29-10.16,12.83-17.52h-9.62c-4.59,9.84-12.23,14.84-22.92,15-6.89,.08-12.87-2.12-17.93-6.6-5.07-4.48-7.96-10.16-8.67-17.04h60.81v-4.92Zm-60.81-3.48c1.27-6.48,4.34-11.72,9.21-15.72,4.87-4,10.55-5.96,17.04-5.88,6.49,.08,12.07,2.1,16.75,6.06,4.67,3.96,7.64,9.14,8.91,15.54h-51.91Zm-52.6,27.4l-23.01-56.32h-9.5l27.79,68.4h9.38l28.27-68.4h-10.04l-22.89,56.32Zm-129.62-58c-9.82-.4-18.25,2.98-25.3,10.14-7.05,7.16-10.57,15.74-10.57,25.74s3.27,17.88,9.82,24.84c6.55,6.96,14.47,10.6,23.78,10.92,10.65,.32,19.64-3.76,26.98-12.24v10.68h9.03v-34.32c.32-9.52-2.85-17.78-9.5-24.78-6.65-7-14.73-10.66-24.23-10.98Zm17.03,54.88c-5.28,5.57-11.65,8.2-19.11,7.88-6.91-.32-12.8-3.19-17.68-8.6s-7.24-11.73-7.08-18.94c.08-7.3,2.66-13.51,7.74-18.64,5.08-5.13,11.23-7.7,18.46-7.7s12.81,2.57,17.74,7.7c4.92,5.13,7.46,11.31,7.62,18.52,.16,7.62-2.4,14.21-7.68,19.78Zm54.01-52c-3.72,2-6.53,4.84-8.43,8.52v-9.72h-8.43v68.4h9.5v-40.92c0-4.4,.75-7.92,2.26-10.56,.95-1.6,2.73-3.48,5.34-5.64,2.61-2.16,6.02-3.32,10.21-3.48v-9.12c-3.56-.16-7.05,.68-10.45,2.52Z"/></g></svg>